<?xml version="1.0" encoding="UTF-8"?>
<svg id="Layer_1" data-name="Layer 1" xmlns="http://www.w3.org/2000/svg" viewBox="0 0 126.64 114.74">
  <defs>
    <style>
      .cls-1 {
        isolation: isolate;
      }

      .cls-2 {
        fill: #fff;
        stroke-width: 0px;
      }
    </style>
  </defs>
  <g class="cls-1">
    <g class="cls-1">
      <path class="cls-2" d="M9,14.99C14.99,5,25.32,0,39.98,0s24.99,5,30.99,14.99,9,23.86,9,41.6-3,31.96-9,42.06c-6,10.1-16.33,15.15-30.99,15.15s-24.99-5.05-30.99-15.15C3,88.55,0,74.53,0,56.59S3,24.99,9,14.99ZM61.12,35.52c-1.08-5.74-3.25-10.43-6.54-14.07-3.28-3.64-8.15-5.46-14.61-5.46s-11.33,1.82-14.61,5.46c-3.28,3.64-5.46,8.33-6.54,14.07-1.08,5.74-1.61,12.76-1.61,21.07s.51,15.84,1.54,21.68c1.02,5.84,3.2,10.56,6.54,14.15,3.33,3.59,8.23,5.38,14.69,5.38s11.35-1.79,14.69-5.38c3.33-3.59,5.51-8.3,6.54-14.15,1.02-5.84,1.54-13.07,1.54-21.68s-.54-15.32-1.62-21.07Z"/>
    </g>
    <g class="cls-1">
      <path class="cls-2" d="M93.53,80.99c1.41-1.37,3.22-2.06,5.43-2.06s4.03.69,5.43,2.06c1.41,1.37,2.11,3.27,2.11,5.68s-.7,4.32-2.11,5.7c-1.41,1.39-3.22,2.08-5.43,2.08s-4.03-.69-5.43-2.08c-1.41-1.39-2.11-3.29-2.11-5.7s.7-4.31,2.11-5.68ZM95.84,86.67c0,2.91,1.04,4.37,3.12,4.37.99,0,1.76-.36,2.31-1.07.55-.71.82-1.81.82-3.3,0-2.88-1.04-4.32-3.12-4.32s-3.12,1.44-3.12,4.32ZM121.68,79.58l-19.79,34.52h-5.56l19.79-34.52h5.56ZM113.72,101.28c1.4-1.37,3.21-2.06,5.43-2.06s3.98.69,5.38,2.06c1.41,1.37,2.11,3.27,2.11,5.68s-.7,4.32-2.11,5.7c-1.41,1.39-3.2,2.08-5.38,2.08s-4.03-.69-5.43-2.08c-1.41-1.39-2.11-3.29-2.11-5.7s.7-4.31,2.11-5.68ZM115.98,106.96c0,2.88,1.04,4.32,3.12,4.32s3.12-1.44,3.12-4.32-1.04-4.32-3.12-4.32-3.12,1.44-3.12,4.32Z"/>
    </g>
  </g>
</svg>