<?xml version="1.0" encoding="UTF-8"?>
<svg id="Layer_1" data-name="Layer 1" xmlns="http://www.w3.org/2000/svg" viewBox="0 0 115.94 116.13">
  <defs>
    <style>
      .cls-1 {
        fill: #fff;
        stroke-width: 0px;
      }
    </style>
  </defs>
  <path class="cls-1" d="M82.54,80.43c-3.3-18.88-6.41-36.61-9.6-54.81h-13.8c-2.14-4.98-1.4-7.44,4.16-7.23,4.74.18,9.5.16,14.24-.04,8.9-.37,15.5-5.03,17.46-13.71,1.14-5.03,3.2-5.45,8.81-3.7-2.48,5.3-4.24,10.71-7.37,15.15-2.31,3.28-3.56,5.66-2.73,9.92,3.08,15.77,5.52,31.66,8.22,47.51.68,3.98,2.29,6.58,6.13,9.2,3.89,2.66,7.05,8.45,7.76,13.28.88,6-3.28,10.75-9.27,13.11-1.73.68-3.5,1.5-4.95,2.64-1.57,1.23-2.78,2.91-4.15,4.39-1.35-1.73-2.7-3.47-4.49-5.77H23.66c-2.15,2.27-3.8,4-5.44,5.73-1.2-1.44-2.26-3.05-3.65-4.28-1.2-1.06-2.7-1.85-4.18-2.49-7.26-3.17-11.25-9.23-10.24-15.73,1.23-7.91,6.88-12.9,15.87-13.01,18.73-.25,37.47-.12,56.21-.15,2.96,0,5.92,0,10.31,0ZM86.52,24.52c-.98-.35-1.96-.71-2.94-1.06-1.01,2.15-3.16,4.47-2.86,6.42,2.34,15.36,5.16,30.65,7.79,45.97.81,4.74,3.28,5.58,7.69,3.37-3.24-18.31-6.46-36.5-9.67-54.69ZM24.08,95.64c-2.38-2.19-4.08-4.83-5.29-4.62-1.91.33-3.49,2.58-5.22,4.01,1.56,1.58,2.9,3.95,4.75,4.45,1.23.33,3.17-2.01,5.76-3.84ZM104.32,94.88c-3.01-1.81-4.91-3.79-6.83-3.82-1.21-.02-3.76,3.32-3.41,4.37.58,1.74,2.93,3.75,4.7,3.93,1.38.14,3.02-2.33,5.54-4.48Z"/>
</svg>