<?xml version="1.0" encoding="utf-8"?>
<!-- Generator: Adobe Illustrator 25.2.0, SVG Export Plug-In . SVG Version: 6.00 Build 0)  -->
<svg version="1.1" id="Layer_1" xmlns="http://www.w3.org/2000/svg" xmlns:xlink="http://www.w3.org/1999/xlink" x="0px" y="0px"
	 viewBox="0 0 20.9 20.9" style="enable-background:new 0 0 20.9 20.9;" xml:space="preserve">
<style type="text/css">
	.st0{fill:#FFFFFF;}
</style>
<g>
	<path class="st0" d="M20.6,11.7L20.6,11.7L20.6,11.7L20.6,11.7L20.6,11.7c-0.3-0.3-0.8-0.6-1.2-0.6c-0.3,0-0.6,0.1-0.8,0.3l0,0
		l-3.4,1.9l0,0l-0.4,0.3c0-0.7-0.4-1.2-1.1-1.4l0,0l0,0l0,0l0,0c-0.2-0.1-0.4-0.2-0.6-0.2l0,0l0,0c-1.6-0.2-3.1-0.5-4.6-0.9l0,0
		c-1.2-0.3-2.4-0.6-3.5-0.6c-0.4,0-0.8,0-1.3,0.1l0,0l0,0c-0.2,0-0.3,0-0.6,0.1c0-0.1-0.1-0.2-0.2-0.3c-0.1,0-0.3,0-0.3,0l0,0l0,0
		c-0.3,0-0.4,0-0.7,0c-0.4,0-0.9,0-1.3,0H0.3c-0.1,0-0.3,0.1-0.3,0.2C0,10.5,0,10.7,0,10.7v6.7v0.2c0,0.1,0.1,0.3,0.2,0.3
		C0.3,18,0.3,18,0.5,18h1.9c0.1,0,0.2,0,0.3,0l0.2-0.1C2.9,17.8,3,17.7,3,17.7c0-0.1,0-0.2,0-0.3c0.1,0,0.3,0,0.3,0
		c0.1,0,0.2,0,0.3,0l0,0l0,0c0.4,0,0.8,0.1,1.2,0.2c1.4,0.4,2.8,0.8,4.1,1.3l0,0c0.5,0.2,1,0.3,1.5,0.3c0.8,0,1.7-0.3,2.4-0.7l0,0
		c2.4-1.3,4.7-2.8,7.1-4.1l0,0c0.2-0.1,0.3-0.3,0.5-0.4l0,0l0,0c0.3-0.3,0.4-0.7,0.4-1.1C20.9,12.3,20.8,12,20.6,11.7z M19.8,13.4
		c-0.1,0.1-0.2,0.1-0.3,0.2l0,0l0,0c-2.4,1.3-4.6,2.7-7,4.1l0,0l0,0c-0.7,0.4-1.3,0.6-2.1,0.6c-0.4,0-0.8-0.1-1.3-0.2l0,0l0,0
		c-1.4-0.4-2.9-0.8-4.3-1.3l0,0l0,0c-0.3-0.1-0.7-0.1-1-0.1l0,0l0,0l0,0l0,0c-0.2,0-0.3,0-0.4,0s-0.3,0-0.4,0v-5.4
		c0.3,0,0.8-0.1,1.1-0.1c0.3,0,0.5,0,0.8,0c1,0,2,0.2,3,0.5l0,0l0,0c1.6,0.5,3.3,0.8,4.9,1l0,0c0.3,0.1,0.6,0.2,0.8,0.3l0.1,0.1
		c0.1,0.1,0.2,0.3,0.2,0.4c0,0.2-0.1,0.3-0.2,0.4l-0.2,0.1c-0.8,0.3-1.5,0.4-2.3,0.4c-0.3,0-0.6,0-0.9-0.1l0,0l0,0
		c-0.4-0.1-0.8-0.2-1.3-0.3l0,0H8.8H8.8H8.7c-0.1,0.1-0.2,0.1-0.3,0.2l0-0.1l0.3,0.4v0.1h0.1c0.8,0.3,1.6,0.3,2.4,0.3
		c1,0,1.9-0.2,2.9-0.5l0,0l0,0c0.4-0.2,0.8-0.4,1.2-0.7l0,0c1.2-0.7,2.4-1.3,3.6-1.9l0,0L19,12c0.2-0.1,0.3-0.1,0.4-0.1
		c0.3,0,0.5,0.1,0.6,0.3l0,0l0,0c0.1,0.2,0.2,0.3,0.2,0.5C20.1,13,20.1,13.3,19.8,13.4z M2.3,17.2H0.8V11h1.4V17.2z"/>
	<path class="st0" d="M8.3,9.7L8.3,9.7c0.8,0.2,1.4,0.3,2.2,0.6l0,0h0.1l0,0l0,0l0,0c0.3,0,0.4-0.2,0.4-0.3l0,0
		c0-0.1,0.1-0.2,0.1-0.3c0.7,0.7,1.6,1.1,2.6,1.1c0.3,0,0.7-0.1,1-0.2l0,0l0,0l0,0l0,0c1.3-0.3,2.4-1.4,2.7-2.8l0,0l0,0l0,0l0,0
		c0.1-0.4,0.2-0.8,0.2-1.3c0-1.1-0.3-2.1-0.8-3l0,0l0,0l0,0l0,0c-0.4-0.8-1.2-1.3-2.1-1.5c-0.3-0.2-0.7-0.2-1-0.2
		c-0.3,0-0.4,0-0.7,0.1l0,0l0,0l0,0l0,0c-1.7,0.2-3.1,1.2-3.9,2.7l0,0l0,0l0,0l0,0C8.7,5.4,8.5,6.1,8.5,7c0,0.6,0.1,1.2,0.3,1.7l0,0
		l0,0l0,0l0,0C8.6,8.7,8.4,8.9,8.3,9l0,0l0,0C8.1,9.1,8.1,9.2,8,9.3v0.1L8.3,9.7L8.3,9.7z M9.6,9.1C9.7,9,9.7,8.9,9.7,8.8
		c0-0.1,0-0.2-0.1-0.3l0,0l0,0C9.4,8,9.3,7.5,9.3,6.9s0.1-1.2,0.3-1.7l0,0l0,0c0.6-1.4,1.9-2.4,3.4-2.5l0,0l0,0
		c0.2,0,0.4-0.1,0.6-0.1c0.4,0,0.8,0.1,1.2,0.3c0.4,0.2,0.8,0.5,1.1,0.9C15.2,3.3,14.4,3,13.7,3c-0.5,0-0.9,0.1-1.4,0.3l0,0l0,0
		c-1.3,0.6-2.3,2-2.3,3.6c0,0.1,0,0.2,0,0.3l0,0l0,0c0,0.3,0.1,0.6,0.2,0.8l0,0l0,0l0,0l0,0c0,0.2,0.1,0.3,0.2,0.3
		c0,0.2,0.2,0.3,0.3,0.3h0.1c-0.1,0.3-0.2,0.6-0.3,0.9L9.4,9.2C9.5,9.1,9.5,9.1,9.6,9.1z M13.7,10L13.7,10L13.7,10L13.7,10
		c-0.9,0-1.8-0.4-2.4-1.2V8.7l0,0c0.1-0.3,0.2-0.5,0.3-0.8l0,0l0,0V7.7V7.5c0-0.1,0-0.1-0.1-0.2l0,0l0,0l-0.3-0.1L11,7.4l0,0l0,0
		c-0.1,0-0.2,0.1-0.3,0.2c-0.1-0.2-0.1-0.4-0.1-0.6c0-0.7,0.3-1.4,0.7-1.9l0,0l0,0c0.5-0.8,1.3-1.2,2.3-1.2c0.3,0,0.5,0,0.8,0.1l0,0
		l0,0c1.2,0.3,2.1,1.2,2.3,2.4l0,0l0,0c0.1,0.3,0.2,0.4,0.2,0.7V7l0,0C16.8,8.7,15.4,10,13.7,10z"/>
	<path class="st0" d="M14.2,6.4L14.2,6.4c-0.3-0.2-0.5-0.3-0.7-0.3l0,0l0,0c-0.1,0-0.1-0.1-0.1-0.2l0,0l0,0c0-0.1,0.1-0.2,0.3-0.2
		l0,0c0.3,0,0.4,0.1,0.7,0.1l0,0l0,0c0,0,0.1,0.1,0.3,0.1l0.2-0.1l0.1-0.2V5.5c0-0.1-0.1-0.3-0.1-0.3l-0.3-0.1
		c-0.2-0.1-0.3-0.1-0.4-0.2V4.8V4.8l-0.3-0.2l-0.2-0.3l-0.3,0.3l-0.1,0.1v0.3L13.3,5c-0.4,0.1-0.7,0.5-0.8,0.8l0,0l0,0v0.1
		c0,0.4,0.3,0.8,0.7,0.9l0,0c0.3,0.1,0.5,0.3,0.7,0.3l0,0l0,0C14,7.3,14,7.3,14,7.4v0.1l0,0l0,0c0,0.1-0.1,0.2-0.2,0.2l0,0l0,0h-0.2
		l-0.2,0.1c-0.2,0-0.3-0.1-0.6-0.2l0,0l0,0c-0.1,0-0.3,0-0.3,0.1l-0.2,0.1l0.1,0.2V8c0,0.1,0,0.2,0.2,0.3l0,0l0,0
		c0.2,0.1,0.3,0.2,0.4,0.2l0,0l0,0c0.1,0,0.2,0,0.3,0.1v0.2v0.1L13.5,9l0.2,0.2L14,8.8l0.1-0.1V8.6c0-0.1,0-0.2,0-0.3h0.1l0,0l0,0
		l0,0l0,0c0.3-0.1,0.5-0.3,0.7-0.6c0.1-0.2,0.1-0.3,0.1-0.4C14.9,7,14.7,6.6,14.2,6.4z"/>
</g>
</svg>
