<?xml version="1.0" encoding="UTF-8"?>
<svg id="Layer_1" data-name="Layer 1" xmlns="http://www.w3.org/2000/svg" viewBox="0 0 179.23 117.11">
  <defs>
    <style>
      .cls-1 {
        fill: #ededed;
        stroke-width: 0px;
      }
    </style>
  </defs>
  <path class="cls-1" d="M20.91,10.64C19.92,1.92,23.76-.07,30.86,0,56.04.26,81.23.04,106.42,0c18.12-.03,20.94,3.07,19.08,21.64,7.89,0,15.76.44,23.56-.15,5.74-.43,8.25,2.29,10.89,6.73,5.95,10,7.88,22.53,18.36,29.73.23.16.49.44.54.7,1.45,8.56-1.7,16.81-1.62,25.33.08,9.32-3.99,15.61-13.91,17.81-5.88,1.3-6.15,8.93-12.03,11.84-10.88,5.38-21.5,3.9-26.68-7.12-2.94-6.26-8.4-7.78-12.79-6.68-12.73,3.2-25.43,1.07-38.11,1.55-5.07.19-8.2,1.02-11.1,6.04-7.71,13.37-24.86,12.7-33.01-.63-1.2-1.96-1.03-5.08-4.5-5.3-12.02-.75-13.02-8.69-11.71-18.13.38-2.76.65-5.55.97-8.29-2.05-2.76-8.9-.61-7.1-6.7,1.36-4.63,5.69-3.01,8.89-3.04,15.43-.14,30.86-.22,46.28-.01,5.25.07,10.43-.89,10.49-6.59.06-5.98-5.41-6.58-10.5-6.53-12.28.12-24.56.02-36.84,0-2.87,0-6.47.07-6.68-3.5-.25-4.23,3.44-4.43,6.75-4.43,12.91.02,25.82-.1,38.73.03,5.17.05,10.37-.79,10.38-6.73.02-6.22-5.45-6.43-10.47-6.41-18.89.09-37.78.01-56.67,0-3.13,0-7.36.46-7.6-3.51-.3-4.99,4.34-4.27,7.67-4.28,17.32-.06,34.63-.06,51.95-.08,1.89,0,3.78-.05,5.67,0,5.23.14,11.38.07,11.31-6.63-.06-6.09-6.02-6.04-10.89-6.02-11.96.04-23.93,0-35.89-.02-2.8,0-5.6,0-8.93,0ZM170.54,64.93c-8.28,0-15.46.26-22.61-.06-9.61-.43-13.96-5.92-13.01-15.41.61-6.15.89-12.34,1.32-18.61-4.32-.94-7.93-1.24-12.22.47-.3,20.54-6.63,40.77-4.83,61.53,3.2,1.05,4.16-.38,5.54-2.51,9.66-15.02,24.42-15.14,34.44-.42,1.21,1.77,1.74,4.2,4.71,3.39,2.74-.75,4-2.53,4.26-5.39.64-7.18,1.48-14.34,2.4-22.99ZM138.83,108.6c8.81.23,13.24-3.67,13.55-10.31.3-6.23-3.54-10.97-10.39-10.44-5.99.46-11.89,2.7-11.83,10.26.05,6.38,4.35,9.46,8.66,10.48ZM46.7,108.89c6.1-.55,10.32-4.08,10.61-10.47.29-6.44-3.4-10.57-10.21-10.75-6.83-.18-10.74,4.09-11.08,10.22-.35,6.31,3.54,10.35,10.68,11Z"/>
</svg>