<?xml version="1.0" encoding="utf-8"?>
<!-- Generator: Adobe Illustrator 28.1.0, SVG Export Plug-In . SVG Version: 6.00 Build 0)  -->
<svg version="1.1" id="Layer_1" xmlns="http://www.w3.org/2000/svg" xmlns:xlink="http://www.w3.org/1999/xlink" x="0px" y="0px"
	 viewBox="0 0 239.6 157.49" style="enable-background:new 0 0 239.6 157.49;" xml:space="preserve">
<style type="text/css">
	.st0{fill:#FFFFFF;}
</style>
<path id="contact-03" class="st0" d="M187.3,121.81c-0.34,1.25-0.78,2.47-1.3,3.66c-1.89,3.95-5.85,6.49-10.22,6.57H64.66
	c-5.57,0.24-10.55-3.44-11.95-8.83c-0.28-1.1-0.41-2.24-0.41-3.37V49.31c-0.21-6.53,4.91-12,11.44-12.21c0.27-0.01,0.54-0.01,0.81,0
	h110.42c5.87-0.23,11.02,3.89,12.09,9.67c0.06,0.21,0.13,0.41,0.22,0.6L187.3,121.81z M66.08,45.14c0.41,0.44,0.68,0.72,0.91,1
	l48.96,49.11c1.53,2.11,4.47,2.57,6.58,1.05c0.4-0.29,0.75-0.64,1.05-1.05l48.96-49.11c0.27-0.27,0.51-0.56,0.91-0.97L66.08,45.14z
	 M66,124.06h107.56l-33.93-33.66l-0.91,0.91c-3.29,3.3-6.57,6.62-9.87,9.9c-4.77,4.98-12.67,5.16-17.66,0.39
	c-0.13-0.13-0.26-0.26-0.39-0.39c-2-1.98-3.97-3.99-5.96-5.98c-1.64-1.64-3.28-3.28-4.85-4.85L66,124.06z M60.22,118.03l33.83-33.44
	l-33.82-33.5L60.22,118.03z M179.25,118.29v-66.9l-33.83,33.42L179.25,118.29z"/>
</svg>
