<?xml version="1.0" encoding="utf-8"?>
<!-- Generator: Adobe Illustrator 25.2.0, SVG Export Plug-In . SVG Version: 6.00 Build 0)  -->
<svg version="1.1" id="Layer_1" xmlns="http://www.w3.org/2000/svg" xmlns:xlink="http://www.w3.org/1999/xlink" x="0px" y="0px"
	 viewBox="0 0 20.9 20.9" style="enable-background:new 0 0 20.9 20.9;" xml:space="preserve">
<style type="text/css">
	.st0{fill:#ff0000;}
</style>
<path id="social-03" class="st0" d="M8.2,20.9c0-0.1,0-0.2,0-0.3v-9.2H5V7.6h3.2V7.4c0-1,0-2,0-2.9c0-1.2,0.5-2.3,1.3-3.1
	c0.6-0.6,1.4-1.1,2.3-1.2C12.5,0,13.2,0,13.9,0c0.6,0,1.2,0.1,1.8,0.1h0.1v3.3h-0.2c-0.7,0-1.4,0-2.2,0c-0.7,0-1.3,0.5-1.4,1.3v0.1
	c0,0.9,0,1.8,0,2.7c0,0,0,0,0,0.1h3.6c-0.2,1.2-0.3,2.5-0.5,3.7h-3.2c0,0.1,0,0.1,0,0.2v9.2c0,0,0,0.1,0,0.1L8.2,20.9z"/>
</svg>
