<?xml version="1.0" encoding="utf-8"?>
<!-- Generator: Adobe Illustrator 28.1.0, SVG Export Plug-In . SVG Version: 6.00 Build 0)  -->
<svg version="1.1" id="Layer_1" xmlns="http://www.w3.org/2000/svg" xmlns:xlink="http://www.w3.org/1999/xlink" x="0px" y="0px"
	 viewBox="0 0 408 384" style="enable-background:new 0 0 408 384;" xml:space="preserve">
<style type="text/css">
	.st0{fill:#FFFFFF;stroke:#FFFFFF;stroke-width:0.25;stroke-miterlimit:10;}
	.st1{fill:#FFFFFF;}
</style>
<g>
	<path class="st1" d="M368.99,241.29c0-9.76,0-19.27,0-28.69c-32.36,0-64.49,0-96.56,0c0,9.69,0,19.12,0,28.69
		C304.65,241.29,336.7,241.29,368.99,241.29z M272.53,260.93c-0.14,0.52-0.24,0.72-0.24,0.92c-0.02,5.7-0.06,11.41-0.03,17.11
		c0.03,7.12,3.85,10.92,11.01,10.94c9.58,0.03,19.16,0.01,28.74,0.01c15.5,0,31,0.02,46.5-0.01c5.66-0.01,10.1-3.03,10.45-8.03
		c0.47-6.92,0.12-13.89,0.12-20.94C336.76,260.93,304.72,260.93,272.53,260.93z"/>
	<path class="st1" d="M201.13,357.78c-5.6-2.58-7.21-7.03-7.2-13.03c0.12-91.56,0.09-183.11,0.09-274.67c0-1.37,0-2.75,0-4.29
		c-26.1,0-51.91,0-77.97,0c0,19.6,0,39.23,0,59.15c0.98,0.05,2.02,0.14,3.05,0.14c8.3,0.01,16.59,0.05,24.89-0.01
		c3.2-0.02,5.89,1.01,8.14,3.26c3.89,3.88,7.84,7.7,11.65,11.65c4.22,4.37,4.35,10.25,0.46,14.14c-3.86,3.87-9.72,3.67-14.18-0.47
		c-0.16-0.15-0.34-0.28-0.46-0.46c-5.28-7.76-12.67-9.25-21.69-8.92c-17.86,0.66-35.76,0.23-53.64,0.15
		c-2.12-0.01-3.64,0.57-5.06,2.12c-2.33,2.54-4.79,4.97-7.3,7.32c-4.29,4.01-10.08,4.09-13.91,0.28c-3.81-3.77-3.82-9.67,0.21-13.92
		c3.92-4.14,7.82-8.37,12.19-12.02c2.05-1.71,5.14-2.89,7.82-3c9.24-0.36,18.5-0.14,28.19-0.14c0-1.32,0-2.46,0-3.6
		c0-21.22-0.01-42.44,0-63.66c0-7.99,3.64-11.6,11.67-11.6c27.26-0.01,54.51,0,81.77,0c1.27,0,2.54,0,4.18,0
		c0-3.23-0.05-6.21,0.01-9.19c0.12-6.13,4.04-10.14,10.15-10.18c12.6-0.07,25.21-0.07,37.81,0c6.13,0.03,10.06,4.03,10.19,10.14
		c0.06,2.9,0.01,5.81,0.01,9.23c1.24,0,2.37,0,3.5,0c20.58,0,41.15,0,61.73,0c8.95,0,12.35,3.37,12.35,12.21
		c0,33.71,0,67.43,0,101.14c0,1.28,0,2.56,0,4.13c1.2,0.06,2.23,0.15,3.27,0.15c8.51,0.01,17.02-0.03,25.53,0.02
		c6.71,0.04,10.58,3.94,10.62,10.69c0.04,5.82-0.02,11.63-0.04,17.45c0,0.19-0.13,0.38-0.27,0.76c-32,0-64.07,0-96.65,0
		c0-2.12,0-4.33,0-6.54c0-3.55-0.01-7.11,0-10.66c0.02-8.06,3.6-11.69,11.57-11.7c8.71-0.01,17.42,0,26.35,0
		c0-32.76,0-65.32,0-98.07c-19.18,0-38.32,0-57.96,0c0,1.27,0,2.61,0,3.96c0,91.66-0.04,183.33,0.09,274.99
		c0.01,6-1.6,10.45-7.2,13.03C230.44,357.78,215.79,357.78,201.13,357.78z"/>
	<path class="st1" d="M38.22,229.15c2.58-5.6,7.03-7.23,13.03-7.2c39.54,0.17,79.08,0.09,118.61,0.09c1.26,0,2.53,0,3.95,0
		c0,19.44,0,38.57,0,58.05c-25.67,0-51.34,0-77.22,0c0,19.56,0,38.77,0,58.3c2.87,0,5.65-0.02,8.42,0
		c5.59,0.05,9.42,2.85,10.54,7.67c1.06,4.54-1.23,8.63-6.2,11.12c-0.26,0.13-0.45,0.4-0.68,0.6c-14.65,0-29.31,0-43.96,0
		c-0.12-0.16-0.21-0.39-0.38-0.48c-5.3-2.7-7.57-6.6-6.5-11.23c1.13-4.91,4.99-7.65,10.84-7.68c2.74-0.02,5.49,0,8.15,0
		c0-19.65,0-38.77,0-58.17c-8.65,0-17.13-0.25-25.6,0.08c-6.01,0.23-10.44-1.6-13.02-7.19C38.22,258.45,38.22,243.8,38.22,229.15z"
		/>
	<path class="st1" d="M38.22,273.1c2.58,5.59,7.01,7.43,13.02,7.19c8.46-0.33,16.95-0.08,25.6-0.08c0,19.41,0,38.53,0,58.17
		c-2.66,0-5.4-0.01-8.15,0c-5.85,0.03-9.71,2.77-10.84,7.68c-1.07,4.63,1.2,8.53,6.5,11.23c0.16,0.08,0.25,0.31,0.38,0.48
		c-8.84,0-17.67,0-26.51,0C38.22,329.55,38.22,301.33,38.22,273.1z"/>
	<path class="st1" d="M368.99,241.29c-32.29,0-64.34,0-96.56,0c0-9.57,0-19,0-28.69c32.07,0,64.2,0,96.56,0
		C368.99,222.02,368.99,231.53,368.99,241.29z"/>
	<path class="st1" d="M272.53,260.93c32.19,0,64.23,0,96.53,0c0,7.05,0.35,14.03-0.12,20.94c-0.34,4.99-4.79,8.01-10.45,8.03
		c-15.5,0.03-31,0.01-46.5,0.01c-9.58,0-19.16,0.02-28.74-0.01c-7.16-0.02-10.98-3.82-11.01-10.94c-0.03-5.7,0.01-11.41,0.03-17.11
		C272.29,261.65,272.39,261.45,272.53,260.93z"/>
</g>
</svg>
