<?xml version="1.0" encoding="utf-8"?>
<!-- Generator: Adobe Illustrator 28.1.0, SVG Export Plug-In . SVG Version: 6.00 Build 0)  -->
<svg version="1.1" id="Layer_1" xmlns="http://www.w3.org/2000/svg" xmlns:xlink="http://www.w3.org/1999/xlink" x="0px" y="0px"
	 viewBox="0 0 408 384" style="enable-background:new 0 0 408 384;" xml:space="preserve">
<style type="text/css">
	.st0{fill:#FFFFFF;stroke:#FFFFFF;stroke-width:0.25;stroke-miterlimit:10;}
	.st1{fill:#FFFFFF;}
</style>
<g>
	<path class="st1" d="M201.21,351.11c-8.36-1.35-14.72-6.02-20.45-11.94c-4.53-4.68-9.41-9-14-13.63
		c-3.04-3.06-6.48-4.03-10.71-3.35c-7.85,1.27-15.72,2.41-23.61,3.39c-17.44,2.17-30.05-7.51-32.93-25.04
		c-1.24-7.54-2.62-15.05-3.87-22.59c-0.67-4.09-2.79-6.91-6.51-8.81c-7.18-3.65-14.28-7.45-21.36-11.29
		c-14.72-7.98-19.66-23.13-12.46-38.26c3.46-7.27,6.98-14.51,10.62-21.69c1.94-3.83,1.92-7.41-0.02-11.23
		c-3.6-7.08-7.06-14.24-10.5-21.41c-7.38-15.38-2.4-30.59,12.67-38.67c6.91-3.71,13.79-7.49,20.81-11c4.1-2.05,6.16-5.15,6.86-9.59
		c1.26-7.95,2.58-15.9,4.18-23.79c3.41-16.76,16.62-25.74,33.5-23.08c7.85,1.24,15.74,2.29,23.61,3.43
		c3.63,0.52,6.68-0.55,9.31-3.13c5.9-5.79,11.85-11.54,17.83-17.25c12.1-11.55,28.12-11.56,40.22-0.01
		c5.83,5.57,11.68,11.13,17.37,16.83c3.14,3.15,6.66,4.11,10.99,3.4c7.85-1.28,15.72-2.47,23.61-3.38
		c17.19-1.98,29.49,7.29,32.59,24.38c1.36,7.52,2.71,15.04,3.88,22.59c0.68,4.44,2.75,7.55,6.84,9.6
		c6.92,3.47,13.7,7.22,20.53,10.86c15.55,8.3,20.46,23.46,12.72,39.35c-3.3,6.78-6.48,13.61-9.97,20.28
		c-2.21,4.23-2.26,8.1-0.05,12.35c3.62,6.96,6.98,14.05,10.35,21.13c7.21,15.15,2.31,30.27-12.41,38.27
		c-6.99,3.79-13.97,7.59-21.08,11.14c-4.21,2.1-6.26,5.3-6.97,9.86c-1.21,7.85-2.55,15.7-4.13,23.49
		c-3.41,16.8-16.55,25.79-33.44,23.17c-7.86-1.22-15.74-2.27-23.61-3.42c-3.62-0.53-6.7,0.46-9.33,3.05
		c-4.79,4.71-9.78,9.22-14.46,14.05c-5.74,5.92-12.09,10.59-20.45,11.94C205.34,351.11,203.28,351.11,201.21,351.11z M280.3,307.66
		c5.46,0.16,9.27-2.73,10.22-7.7c1.36-7.1,2.88-14.19,3.71-21.35c1.49-12.82,7.72-21.85,19.55-27.24
		c6.28-2.86,12.27-6.38,18.37-9.64c6.15-3.29,7.68-7.97,4.67-14.21c-3.5-7.25-6.99-14.5-10.62-21.69c-4.57-9.04-4.57-17.99,0-27.04
		c3.53-7,6.91-14.08,10.34-21.14c3.4-7,1.96-11.38-4.93-15.04c-7.11-3.78-14.23-7.53-21.34-11.32
		c-8.15-4.35-13.31-10.95-14.98-20.11c-1.58-8.63-3.04-17.28-4.66-25.91c-1.14-6.05-5.35-9.05-11.39-8.2
		c-7.87,1.1-15.75,2.18-23.6,3.44c-10.45,1.68-19.36-1.04-26.87-8.59c-5.46-5.5-11.12-10.81-16.69-16.19
		c-5.44-5.25-10.11-5.22-15.62,0.1c-5.8,5.6-11.58,11.22-17.38,16.81c-6.55,6.32-14.3,9.29-23.43,8.09
		c-8.6-1.13-17.18-2.36-25.77-3.6c-6.44-0.94-10.68,1.91-11.89,8.28c-1.29,6.79-2.8,13.58-3.56,20.43
		c-1.43,12.97-7.77,22.04-19.7,27.47c-6.19,2.82-12.09,6.28-18.09,9.5c-6.34,3.39-7.85,7.98-4.74,14.41
		c3.51,7.24,7.01,14.49,10.62,21.69c4.48,8.94,4.49,17.82,0.01,26.76c-3.56,7.11-7,14.27-10.47,21.42
		c-3.31,6.81-1.86,11.26,4.84,14.83c7.01,3.74,14.02,7.5,21.07,11.16c9.12,4.73,14.24,12.19,15.82,22.3
		c1.23,7.85,2.67,15.67,4.15,23.48c1.29,6.83,5.43,9.59,12.24,8.56c7.86-1.19,15.74-2.25,23.61-3.41c10.24-1.51,18.9,1.52,26.22,8.8
		c5.42,5.39,10.98,10.65,16.48,15.97c5.51,5.32,10.18,5.35,15.62,0.1c5.43-5.24,10.97-10.37,16.24-15.76
		c7.87-8.06,17.19-10.82,28.23-8.87C264.57,305.68,272.69,306.59,280.3,307.66z"/>
	<path class="st1" d="M274.33,132.04c-0.82,1.84-1.55,3.73-2.5,5.49c-0.48,0.88-1.35,1.55-2.08,2.28
		c-39.31,39.31-78.62,78.62-117.91,117.94c-2.25,2.25-4.57,4.19-8,4.1c-3.63-0.09-6.36-1.71-8.02-4.9
		c-1.72-3.31-1.43-6.59,0.77-9.62c0.66-0.91,1.49-1.71,2.3-2.51c39.3-39.31,78.62-78.62,117.91-117.94c2.25-2.25,4.57-4.15,8-4.11
		C269.81,122.82,273.82,126.8,274.33,132.04z"/>
	<path class="st1" d="M167.53,176.98c-18.66-0.1-33.51-15.2-33.37-33.91c0.14-18.35,15.47-33.4,33.82-33.21
		c18.4,0.2,33.32,15.38,33.24,33.82C201.15,162.09,185.97,177.08,167.53,176.98z M167.8,128.3c-8.41-0.05-15.17,6.54-15.36,14.97
		c-0.19,8.28,6.93,15.49,15.28,15.46c8.26-0.02,15.16-6.94,15.19-15.23C182.93,135.15,176.18,128.35,167.8,128.3z"/>
	<path class="st1" d="M241.03,207.66c18.55,0.05,33.42,14.96,33.43,33.51c0.01,18.51-15.29,33.73-33.75,33.58
		c-18.38-0.15-33.37-15.35-33.31-33.75C207.47,222.56,222.54,207.61,241.03,207.66z M240.82,256.32
		c8.43,0.05,15.17-6.51,15.37-14.96c0.19-8.3-6.9-15.48-15.27-15.46c-8.28,0.02-15.17,6.91-15.19,15.21
		C225.69,249.48,232.43,256.27,240.82,256.32z"/>
</g>
</svg>
