<?xml version="1.0" encoding="utf-8"?>
<!-- Generator: Adobe Illustrator 28.1.0, SVG Export Plug-In . SVG Version: 6.00 Build 0)  -->
<svg version="1.1" id="Layer_1" xmlns="http://www.w3.org/2000/svg" xmlns:xlink="http://www.w3.org/1999/xlink" x="0px" y="0px"
	 viewBox="0 0 408 384" style="enable-background:new 0 0 408 384;" xml:space="preserve">
<style type="text/css">
	.st0{fill:#FFFFFF;stroke:#FFFFFF;stroke-width:0.25;stroke-miterlimit:10;}
	.st1{fill:#FFFFFF;}
</style>
<g>
	<path class="st1" d="M134.81,341.72c-44.75,0-81.18-30.49-81.18-80.78V135.8c0-50.29,36.43-80.78,81.18-80.78
		s81.58,30.49,81.58,80.78v125.13C216.39,311.23,179.56,341.72,134.81,341.72z M175.99,136.99c0-27.32-15.44-45.94-41.18-45.94
		s-40.79,18.61-40.79,45.94v122.76c0,27.32,15.05,45.94,40.79,45.94s41.18-18.61,41.18-45.94V136.99z"/>
	<path class="st1" d="M267.69,282.85c-12.64,0-22.68-8.1-22.68-22.03v-16.36c0-13.93,10.04-22.2,22.68-22.2
		c12.64,0,22.68,8.26,22.68,22.2v16.36C290.37,274.75,280.33,282.85,267.69,282.85z M277.9,244.94c0-7.29-3.24-11.66-10.21-11.66
		c-6.97,0-10.21,4.21-10.21,11.66v15.39c0,7.45,3.24,11.5,10.21,11.5c6.97,0,10.21-4.21,10.21-11.5V244.94z M283.25,338.75h-13.28
		l54.44-115.36h13.12L283.25,338.75z M339.95,339.88c-12.64,0-22.68-8.26-22.68-22.2v-16.36c0-13.93,10.05-22.19,22.68-22.19
		c12.64,0,22.68,8.26,22.68,22.19v16.36C362.63,331.62,352.59,339.88,339.95,339.88z M350.16,301.81c0-7.29-3.24-11.67-10.21-11.67
		c-6.97,0-10.21,4.21-10.21,11.67v15.39c0,7.45,3.24,11.67,10.21,11.67c6.97,0,10.21-4.37,10.21-11.67V301.81z"/>
</g>
</svg>
