<?xml version="1.0" encoding="utf-8"?>
<!-- Generator: Adobe Illustrator 28.1.0, SVG Export Plug-In . SVG Version: 6.00 Build 0)  -->
<svg version="1.1" id="Layer_1" xmlns="http://www.w3.org/2000/svg" xmlns:xlink="http://www.w3.org/1999/xlink" x="0px" y="0px"
	 viewBox="0 0 408 384" style="enable-background:new 0 0 408 384;" xml:space="preserve">
<style type="text/css">
	.st0{fill:#FFFFFF;stroke:#FFFFFF;stroke-width:0.25;stroke-miterlimit:10;}
	.st1{fill:#FFFFFF;}
</style>
<g>
	<path class="st0" d="M12,157.19c2.51-0.79,5.01-2.23,7.53-2.27c12.57-0.24,25.15-0.12,37.73-0.1c4.81,0.01,7.35,2.16,7.29,6.01
		c-0.06,3.71-2.57,5.91-7.1,5.93c-12.95,0.06-25.9,0.15-38.85-0.11c-2.21-0.04-4.4-1.78-6.59-2.73C12,161.68,12,159.44,12,157.19z"
		/>
	<path class="st0" d="M300.04,143.86c14.17,0,27.76,0.18,41.34-0.07c8.14-0.14,13.59,3.17,17.47,10.34
		c9.8,18.07,19.91,35.98,30,53.89c3.83,6.8,5.8,13.94,5.69,21.77c-0.15,10.1-0.01,20.21-0.05,30.32
		c-0.03,7.44-4.16,11.89-11.63,11.43c-6.31-0.39-9.81,0.77-12.32,7.64c-4.58,12.52-18.07,20.09-30.96,19.3
		c-14.04-0.86-25.56-9.71-29.8-22.91c-0.38-1.17-0.73-2.35-1.14-3.7c-36.06,0-72.07,0-108.3,0c-1.6,6.67-4.58,12.61-9.58,17.38
		c-17.62,16.84-46.54,9.59-53.89-13.67c-1.05-3.31-2.45-4.04-5.68-4c-15.09,0.18-30.19,0.09-45.29,0.08
		c-6.13-0.01-8.06-1.94-8.07-8.03c-0.01-11.23,0-22.46,0-33.68c0-1.34,0-2.67,0-4.45c-1.73,0-3.07,0-4.4,0
		c-13.47,0-26.95,0.02-40.42-0.01c-4.77-0.01-7.49-2.19-7.51-5.88c-0.02-3.67,2.78-6.06,7.45-6.07c24.33-0.04,48.65-0.02,72.98-0.01
		c0.75,0,1.5,0.02,2.23,0.15c3.36,0.61,5.39,3.08,5.21,6.25c-0.18,3.19-2.41,5.36-5.92,5.51c-2.86,0.13-5.74,0.05-8.61,0.05
		c-2.85,0-5.69,0-8.78,0c0,11.48,0,22.62,0,34.19c4.93,0,9.75,0,14.58,0c9.23,0,18.46-0.06,27.7,0.04c2.29,0.03,3.41-0.42,4.13-2.96
		c4.11-14.42,16.88-23.96,31.61-23.96c14.54,0.01,27.11,9.46,31.41,23.75c0.59,1.95,0.99,3.21,3.56,3.2
		c27.57-0.11,55.14-0.07,82.71-0.08c0.49,0,0.99-0.09,1.89-0.17c0-51.96,0-103.9,0-156.14c-65.7,0-131.5,0-197.57,0
		c0,5.84,0,11.77,0,18.14c1.24,0.06,2.55,0.18,3.86,0.18c10.23,0.02,20.46,0.02,30.69,0.03c2.92,0,5.52,1.23,5.93,4.08
		c0.29,2.01-0.66,4.52-1.83,6.31c-0.67,1.03-2.87,1.48-4.38,1.49c-23.82,0.09-47.65,0.1-71.47,0.04c-4.23-0.01-6.77-2.37-6.85-5.85
		c-0.08-3.63,2.55-6.02,6.98-6.06c8.09-0.08,16.18-0.02,24.83-0.02c0-5.87,0-11.42,0-16.97c0.01-9.86,3.73-13.65,13.46-13.65
		c65-0.01,130-0.01,194.99,0c9.97,0,13.74,3.8,13.75,13.82c0.01,11.48,0,22.96,0,34.43C300.04,140.67,300.04,142.02,300.04,143.86z
		 M382.54,259.48c0-10.15-0.08-19.99,0.03-29.83c0.07-5.52-1.26-10.57-3.94-15.36c-10.23-18.27-20.45-36.54-30.56-54.87
		c-1.45-2.63-3.23-3.67-6.24-3.64c-12.72,0.13-25.45,0.05-38.17,0.07c-1.08,0-2.16,0.14-3.27,0.21c0,34.66,0,69.02,0,103.36
		c7.57,0.85,7.57,0.85,10-5.5c4.85-12.63,16.88-21,30.34-21.1c13.65-0.1,25.87,8.19,30.84,20.92c2.4,6.13,2.4,6.14,9.01,5.94
		C381.07,259.66,381.56,259.58,382.54,259.48z M147.39,265.54c0.04,11.84,9.08,21,20.71,21c11.48,0,20.64-9.42,20.59-21.19
		c-0.05-11.42-9.32-20.59-20.79-20.57C156.4,244.81,147.35,253.97,147.39,265.54z M320.37,265.48c0.01,11.8,9.05,21,20.69,21.06
		c11.33,0.06,20.61-9.29,20.6-20.76c-0.01-11.85-9.02-21-20.67-21C329.52,244.78,320.35,253.98,320.37,265.48z"/>
	<path class="st0" d="M89.81,186.39c6.15,0,11.75,0,17.35,0c19.83,0,39.65-0.01,59.48,0.01c4.71,0,7.34,2.26,7.26,6.09
		c-0.08,3.67-2.65,5.86-7.16,5.86c-34.54,0.02-69.08,0.02-103.63,0c-4.49,0-7.02-2.26-7.03-5.99c-0.01-3.75,2.51-5.93,7.01-5.96
		c4.73-0.04,9.46-0.01,14.74-0.01c0-1.5,0-2.82,0-4.13c0-9.6-0.02-19.2,0.01-28.81c0.01-4.47,2.19-7.17,5.76-7.3
		c3.66-0.13,6.18,2.76,6.19,7.31C89.84,164.28,89.81,175.11,89.81,186.39z"/>
</g>
</svg>
