<?xml version="1.0" encoding="utf-8"?>
<!-- Generator: Adobe Illustrator 25.2.0, SVG Export Plug-In . SVG Version: 6.00 Build 0)  -->
<svg version="1.1" id="Layer_1" xmlns="http://www.w3.org/2000/svg" xmlns:xlink="http://www.w3.org/1999/xlink" x="0px" y="0px"
	 viewBox="0 0 20.9 20.9" style="enable-background:new 0 0 20.9 20.9;" xml:space="preserve">
<style type="text/css">
	.st0{fill:#ff0000;}
</style>
<g id="social-01" transform="translate(0 0)">
	<path id="Path_15" class="st0" d="M16.1,20.9H4.8c-0.1,0-0.3-0.1-0.4-0.1c-1.8-0.3-3.3-1.5-4-3.2c-0.2-0.5-0.3-1-0.4-1.5V4.8
		C0.1,4.4,0.1,4,0.3,3.6C0.9,1.5,3,0,5.3,0c3.5,0,6.9,0,10.4,0c1.1,0,2.2,0.3,3.1,1c1.4,1,2.2,2.6,2.2,4.4v10.1c0,0.3,0,0.7-0.1,1
		c-0.3,1.8-1.5,3.4-3.3,4C17.1,20.7,16.6,20.8,16.1,20.9z M19.1,10.4L19.1,10.4l0-5.1c0.1-1.9-1.5-3.5-3.4-3.6c-0.1,0-0.1,0-0.2,0
		c-3.4,0-6.8,0-10.2,0c-0.2,0-0.5,0-0.7,0C3,2,1.8,3.4,1.8,5c0,3.6,0,7.1,0,10.7c0,0.5,0.1,1,0.3,1.4c0.6,1.3,1.9,2.1,3.3,2
		c3.4,0,6.8,0,10.2,0c0.2,0,0.5,0,0.7-0.1c1.6-0.3,2.8-1.6,2.9-3.2C19.1,14.1,19.1,12.2,19.1,10.4z"/>
	<path id="Path_16" class="st0" d="M15.7,10.4c0,2.9-2.3,5.2-5.2,5.2c-2.9,0-5.2-2.3-5.2-5.2c0-2.9,2.3-5.2,5.2-5.2c0,0,0,0,0,0
		C13.3,5.2,15.7,7.6,15.7,10.4z M10.4,7C8.5,7,7,8.5,7,10.4s1.6,3.5,3.5,3.5c1.9,0,3.5-1.6,3.5-3.5c0-0.9-0.4-1.8-1-2.5
		C12.2,7.3,11.4,7,10.4,7L10.4,7z"/>
	<path id="Path_17" class="st0" d="M16.1,6.1c-0.7,0-1.3-0.6-1.3-1.3c0-0.7,0.6-1.3,1.3-1.3s1.3,0.6,1.3,1.3c0,0.2-0.1,0.4-0.2,0.6
		C17,5.9,16.6,6.1,16.1,6.1z"/>
</g>
</svg>
