<?xml version="1.0" encoding="utf-8"?>
<!-- Generator: Adobe Illustrator 25.2.0, SVG Export Plug-In . SVG Version: 6.00 Build 0)  -->
<svg version="1.1" id="Layer_1" xmlns="http://www.w3.org/2000/svg" xmlns:xlink="http://www.w3.org/1999/xlink" x="0px" y="0px"
	 viewBox="0 0 20.9 20.9" style="enable-background:new 0 0 20.9 20.9;" xml:space="preserve">
<style type="text/css">
	.st0{fill:#FFFFFF;}
</style>
<path id="Path_11" class="st0" d="M9.8,20.8c-0.4,0-0.8-0.1-1.2-0.1c-1.2-0.1-2.4-0.5-3.5-1c-0.4-0.2-0.7-0.5-0.9-0.8
	c-0.5-0.5-0.5-1.3,0-1.9c0.4-0.5,0.9-0.8,1.5-1.1c0.8-0.3,1.7-0.6,2.5-0.7c-0.1-0.1-0.1-0.2-0.2-0.2c-0.9-1.2-1.8-2.4-2.7-3.6
	c-0.7-1-1.2-2.1-1.5-3.3c-0.7-3.8,1.8-7.4,5.6-8c3.7-0.7,7.3,1.8,8,5.4c0.3,1.7,0,3.5-0.8,5c-0.6,1.1-1.3,2.1-2.1,3l-1.3,1.7
	c0.3,0.1,0.7,0.1,1,0.2c0.8,0.1,1.5,0.4,2.2,0.8c0.3,0.2,0.6,0.4,0.8,0.7c0.6,0.6,0.6,1.4,0,2c-0.4,0.4-0.8,0.7-1.3,0.9
	c-1,0.4-2.1,0.7-3.1,0.8c-0.4,0-0.8,0.1-1.2,0.1L9.8,20.8z M10.7,17.3c0.1-0.1,0.1-0.1,0.1-0.2c0.8-1.1,1.6-2.1,2.5-3.2
	c0.8-1.1,1.6-2.1,2.4-3.2c1-1.4,1.4-3.1,1.1-4.7c-0.5-3.3-3.7-5.6-7-5.1c-3.3,0.5-5.6,3.7-5.1,7C4.7,8.3,4.8,8.7,4.9,9
	c0.4,1,0.9,2,1.6,2.8C7.9,13.6,9.3,15.4,10.7,17.3C10.7,17.2,10.7,17.2,10.7,17.3z M10.4,20c1.5,0,3.1-0.2,4.5-0.6
	c0.6-0.2,1.1-0.4,1.6-0.8c0.3-0.2,0.4-0.6,0.2-1c0-0.1-0.1-0.1-0.2-0.2c-0.2-0.2-0.4-0.4-0.7-0.5c-1-0.5-2-0.8-3.1-0.9
	c-0.1,0-0.2,0-0.2,0.1c-0.5,0.6-0.9,1.3-1.4,1.9c-0.3,0.4-0.5,0.4-0.8,0c-0.5-0.6-0.9-1.3-1.4-1.9c-0.1-0.1-0.2-0.1-0.3-0.1
	c-0.6,0.1-1.3,0.2-1.9,0.4c-0.7,0.1-1.3,0.5-1.8,0.9c-0.5,0.4-0.5,0.8,0,1.2c0.3,0.3,0.7,0.5,1.1,0.6C7.4,19.7,8.9,20,10.4,20
	L10.4,20z"/>
<path id="Path_12" class="st0" d="M10.7,9.7c-1.6,0-2.8-1.3-2.8-2.9C7.9,5.3,9.1,4,10.7,4s2.8,1.3,2.8,2.9c0,0,0,0,0,0
	C13.5,8.5,12.3,9.7,10.7,9.7z M12.7,6.9c0-1.1-0.9-2-2-2c-1.1,0-2,0.9-2,2c0,1.1,0.9,2,2,2c0,0,0,0,0,0C11.8,8.9,12.7,8,12.7,6.9
	L12.7,6.9z"/>
<path id="Path_13" class="st0" d="M16,6.7v0.2c0,0.2-0.2,0.4-0.4,0.4c-0.2,0-0.4-0.2-0.4-0.4c0,0,0,0,0,0c0-1.9-1.2-3.5-2.9-4.2
	c-0.3-0.1-0.4-0.3-0.3-0.5c0-0.2,0.2-0.4,0.5-0.4c0,0,0.1,0,0.1,0c1,0.4,1.9,1,2.5,1.9C15.6,4.7,16,5.7,16,6.7z"/>
<path id="Path_14" class="st0" d="M10.7,2.4c-0.2,0-0.4-0.2-0.4-0.5c0-0.2,0.2-0.4,0.5-0.4c0.2,0,0.4,0.2,0.4,0.5
	c0,0.1,0,0.1-0.1,0.2C11,2.4,10.9,2.4,10.7,2.4z"/>
</svg>
