<?xml version="1.0" encoding="utf-8"?>
<!-- Generator: Adobe Illustrator 28.1.0, SVG Export Plug-In . SVG Version: 6.00 Build 0)  -->
<svg version="1.1" id="Layer_1" xmlns="http://www.w3.org/2000/svg" xmlns:xlink="http://www.w3.org/1999/xlink" x="0px" y="0px"
	 viewBox="0 0 239.6 157.49" style="enable-background:new 0 0 239.6 157.49;" xml:space="preserve">
<style type="text/css">
	.st0{fill:#FFFFFF;}
</style>
<g id="contact-02" transform="translate(-47.576 -31.629)">
	<path id="Path_28" class="st0" d="M187.04,174c-1.92-0.39-3.81-0.88-5.67-1.48c-8.03-3.06-15.7-6.98-22.87-11.71
		c-9.42-6.07-17.88-13.53-25.09-22.12c-7.79-9.44-14.17-19.95-18.94-31.22c-1.64-3.39-2.52-7.09-2.6-10.86
		c0.02-7.4,4.35-14.12,11.08-17.2c2.15-1.24,4.52-2.05,6.99-2.39c3.03-0.39,6.08,0.51,8.42,2.47c3.4,2.84,6.37,6.14,8.84,9.81
		c2.26,3.33,4.29,6.81,6.08,10.41c2.31,4.72,0.76,10.42-3.62,13.33c-0.61,0.48-1.25,0.94-1.91,1.36c-1.88,1.18-4.36,0.62-5.55-1.27
		c-1.07-1.71-0.72-3.95,0.84-5.24c0.73-0.63,1.51-1.21,2.24-1.78c1-0.75,1.29-2.14,0.66-3.22c-0.88-1.8-1.85-3.56-2.92-5.26
		c-2.47-3.91-5.32-7.56-8.53-10.89c-1.35-1.63-3.64-2.13-5.54-1.2c-2.65,0.92-5,2.53-6.81,4.67c-2.46,3.3-2.93,7.68-1.24,11.43
		c2.14,5.67,4.77,11.14,7.88,16.34c5.28,9.17,11.89,17.51,19.63,24.73c9.77,8.97,21.05,16.15,33.31,21.21
		c1.94,0.84,3.97,1.44,6.05,1.78c4.41,0.73,8.79-1.44,10.87-5.4c0.71-1.26,1.33-2.57,1.85-3.92c0.78-1.61,0.37-3.53-1-4.68
		c-1.32-1.25-2.62-2.52-4.03-3.67c-3.47-2.93-7.23-5.48-11.24-7.62c-2.59-1.34-3.57-1.12-5.3,1.19c-0.38,0.55-0.81,1.07-1.27,1.55
		c-1.39,1.36-3.56,1.51-5.12,0.36c-1.61-1.1-2.16-3.22-1.27-4.96c1.63-3.41,4.69-5.91,8.36-6.83c2.05-0.43,4.18-0.21,6.11,0.61
		c4.09,1.7,7.92,3.97,11.37,6.74c3.05,2.42,5.96,5.03,8.71,7.8c3.06,3.03,4.04,7.59,2.5,11.61c-1.39,5.09-4.55,9.52-8.92,12.49
		c-2.18,1.43-4.65,2.38-7.23,2.76c-0.28,0.06-0.56,0.14-0.83,0.23L187.04,174z"/>
	<path id="Path_29" class="st0" d="M173.15,59.75c23.96,0.63,44.26,17.83,48.82,41.36c0.5,3.19,0.8,6.41,0.89,9.63
		c0.1,2.08-1.44,3.87-3.51,4.08c-1.97,0.27-3.83-0.96-4.35-2.87c-0.18-0.8-0.27-1.61-0.26-2.43c-0.15-7.89-2.54-15.58-6.9-22.16
		c-4.87-7.54-12-13.34-20.37-16.59c-4.91-1.86-10.1-2.86-15.34-2.97c-2.19,0.17-4.1-1.46-4.28-3.65c-0.02-0.19-0.02-0.38,0-0.57
		c0.09-2.23,1.97-3.98,4.21-3.89c0.15,0.01,0.3,0.02,0.45,0.04L173.15,59.75z"/>
	<path id="Path_30" class="st0" d="M173.06,83.34c12.55,0.55,23.14,9.52,25.73,21.81c0.33,1.79,0.52,3.6,0.57,5.42
		c0.21,2.21-1.41,4.18-3.62,4.39c-2.21,0.21-4.18-1.41-4.39-3.62c-0.01-0.13-0.02-0.26-0.02-0.39c-0.07-2.45-0.52-4.87-1.35-7.18
		c-2.81-7.14-9.54-11.97-17.21-12.35c-0.48-0.01-0.97-0.05-1.45-0.12c-2.22-0.14-3.9-2.05-3.76-4.27s2.05-3.9,4.27-3.76l0,0
		C172.24,83.26,172.65,83.32,173.06,83.34z"/>
</g>
</svg>
