<?xml version="1.0" encoding="UTF-8"?>
<svg id="Layer_1" data-name="Layer 1" xmlns="http://www.w3.org/2000/svg" viewBox="0 0 130.55 135.78">
  <defs>
    <style>
      .cls-1 {
        fill: #fff;
        stroke-width: 0px;
      }
    </style>
  </defs>
  <path class="cls-1" d="M125.27,62.08c2.26-3.03,3.56-6.79,5.29-10.22-.24-8.67-5.51-12.24-12.1-14.14-5.96-1.72-8.25-5.05-8.36-11.26-.22-12.97-7.05-18.21-19.39-14.33-6.56,2.06-10.06.05-13.87-4.76-7.86-9.93-15.91-9.82-23.66.27-3.58,4.66-6.98,6.52-13.21,4.6-12.83-3.94-19.35,1.12-19.79,14.63-.17,5.35-1.8,8.54-7.26,10.52C-1.15,42.5-3.49,49.46,4.75,61.64c3.15,4.65,3.11,8,.07,12.58-8.25,12.41-6.07,18.94,8.06,24.21,5.26,1.96,7.2,5.02,7.36,10.51.4,13.98,6.68,18.6,20.35,14.5,5.58-1.67,8.62-.33,11.95,4.03,8.49,11.09,16.57,11.06,25.17-.04,3.34-4.32,6.45-5.61,12-3.95,13.54,4.06,19.98-.66,20.4-14.53.17-5.49,2.11-8.54,7.37-10.49,13.69-5.1,15.98-12.23,7.89-24.42-2.84-4.29-3.28-7.69-.1-11.96ZM75.87,96.36c-3.47,1.53-6.85,2.29-6.7,7.32.03,1.18-2.96,3.18-4.74,3.41-1.11.14-3.73-2.4-3.65-3.6.32-4.78-3.31-4.96-6.03-6.96-4.41-3.23-8.25-7.52-11.36-12.03-.91-1.32,1.48-4.91,2.35-7.46,2.02,1.51,4.25,2.83,6.02,4.59,2.39,2.38,4.44,5.1,6.63,7.68.65-.49,1.3-.98,1.95-1.47v-15.38c-2.08-.85-4.38-1.61-6.51-2.69-6.34-3.22-11.07-7.77-11.01-15.47.06-7.34,4.49-12.03,10.67-14.9,3.85-1.79,7.99-2.56,7.5-8.3-.08-.89,2.73-3.06,3.6-2.78,1.83.59,4.64,2.44,4.62,3.73-.08,4.63,2.82,5.49,6.16,6.9,6,2.54,10.69,6.72,11.21,13.67.14,1.9-1.86,3.96-2.88,5.95-1.76-1.26-3.82-2.26-5.23-3.83-2.39-2.66-4.37-5.68-6.52-8.55-.64.38-1.28.77-1.92,1.15v15.99c1.67.65,3.7,1.37,5.67,2.24,6.7,2.94,11.14,7.9,11.22,15.34.08,7.5-4.46,12.55-11.06,15.46Z"/>
  <path class="cls-1" d="M52.25,54.74c.13,2.85,4,5.53,6.23,8.28.57-.4,1.14-.8,1.71-1.2v-14.42c-.8-.46-1.61-.91-2.41-1.37-2,2.91-5.66,5.89-5.54,8.71Z"/>
  <path class="cls-1" d="M69.99,73.73v14.31c.52.36,1.05.73,1.57,1.09,2.18-2.51,6.13-5.04,6.09-7.53-.04-3.04-3.41-6.03-5.35-9.04-.77.39-1.54.77-2.31,1.16Z"/>
</svg>