<?xml version="1.0" encoding="utf-8"?>
<!-- Generator: Adobe Illustrator 25.2.0, SVG Export Plug-In . SVG Version: 6.00 Build 0)  -->
<svg version="1.1" id="Layer_1" xmlns="http://www.w3.org/2000/svg" xmlns:xlink="http://www.w3.org/1999/xlink" x="0px" y="0px"
	 viewBox="0 0 20.9 20.9" style="enable-background:new 0 0 20.9 20.9;" xml:space="preserve">
<style type="text/css">
	.st0{fill:#E4E4E4;}
</style>
<g>
	<path id="Path_9" class="st0" d="M17.4,8.2c0,1.3,0,2.5,0,3.8c0,0.2-0.1,0.4-0.3,0.5c-2.1,1.3-4.3,2.5-6.4,3.8
		c-0.2,0.1-0.4,0.1-0.6,0C8,15,5.9,13.7,3.7,12.5c-0.2-0.1-0.3-0.3-0.3-0.6c0-2.5,0-5,0-7.5c0-0.2,0.1-0.5,0.3-0.6
		C5.9,2.6,8,1.4,10.1,0.1c0.2-0.1,0.4-0.1,0.6,0c2.1,1.3,4.3,2.5,6.4,3.8c0.2,0.1,0.3,0.3,0.3,0.5C17.4,5.7,17.4,6.9,17.4,8.2z
		 M4.1,4.9c0,0.1,0,0.1,0,0.2c0,2.2,0,4.5,0,6.7c0,0.1,0.1,0.2,0.2,0.3c1.9,1.1,3.7,2.2,5.6,3.3c0.1,0,0.1,0.1,0.2,0.1
		c0-0.1,0-0.1,0-0.1c0-2.3,0-4.5,0-6.8c0-0.1-0.1-0.2-0.2-0.2c-1.7-1-3.4-2-5.1-3L4.1,4.9z M10.8,15.5c0.1-0.1,0.2-0.1,0.2-0.1
		c1.9-1.1,3.7-2.2,5.6-3.3c0.1-0.1,0.2-0.2,0.2-0.3c0-2.2,0-4.4,0-6.6V4.9c-0.1,0-0.1,0.1-0.2,0.1c-0.5,0.3-0.9,0.5-1.4,0.8
		c-0.1,0.1-0.2,0.2-0.2,0.3c0,0.9,0,1.7,0,2.6c0,0.2-0.1,0.4-0.3,0.4c-0.6,0.3-1.2,0.7-1.7,1c-0.4,0.2-0.6,0.1-0.6-0.4V7.4
		c-0.5,0.3-1,0.6-1.5,0.9c-0.1,0.1-0.2,0.2-0.2,0.3c0,2.2,0,4.4,0,6.6L10.8,15.5z M4.4,4.3c2,1.2,3.9,2.3,5.9,3.5c0.1,0,0.1,0,0.2,0
		c0.5-0.3,1.1-0.6,1.6-1l-1.8-1.1C9,5,7.6,4.2,6.3,3.4c-0.1,0-0.2-0.1-0.2,0C5.5,3.6,5,3.9,4.4,4.3L4.4,4.3z M8.7,1.7
		c2,1.2,4,2.3,5.9,3.5c0.1,0,0.2,0,0.2,0c0.5-0.3,0.9-0.5,1.4-0.8c0,0,0.1-0.1,0.1-0.1L15,3.4l-4.4-2.6c-0.1,0-0.2-0.1-0.2,0
		C9.8,1.1,9.3,1.4,8.7,1.7z M6.8,2.9l2.3,1.4l3.5,2.1c0.1,0,0.2,0.1,0.2,0c0.4-0.2,0.8-0.5,1.2-0.7c-0.6-0.3-1.1-0.7-1.7-1
		C11,3.9,9.6,3,8.2,2.2c-0.1,0-0.2-0.1-0.2,0C7.6,2.4,7.2,2.6,6.8,2.9L6.8,2.9z M13.1,9.3c0.4-0.2,0.8-0.5,1.1-0.7
		c0.1,0,0.2-0.1,0.1-0.2c0-0.7,0-1.3,0-2c0,0,0-0.1,0-0.2C14,6.5,13.6,6.7,13.2,7c0,0-0.1,0.1-0.1,0.1C13.1,7.8,13.1,8.5,13.1,9.3
		L13.1,9.3z"/>
	<path id="Path_10" class="st0" d="M4.2,19.8C4.1,20,4.1,20.2,4,20.4c0,0.2-0.2,0.3-0.4,0.3c-0.1,0-0.1-0.1-0.2-0.1
		C2,19.3,1,17.7,0.6,15.9c0-0.3-0.1-0.5-0.1-0.8c0-0.2,0.1-0.3,0.3-0.3c0.1,0,0.1,0,0.2,0c1.2,0.5,2.6,0.8,3.9,0.7
		c0.4,0,0.6,0.2,0.4,0.6c-0.1,0.2-0.1,0.5-0.2,0.7c0,0,0,0,0,0.1c0.6,0.2,1.1,0.4,1.7,0.6c4.4,1.2,9,0,12.3-3.1
		c0.2-0.2,0.4-0.4,0.5-0.5s0.3-0.2,0.5-0.1c0.1,0.1,0.2,0.3,0.1,0.5C18,18.5,13.5,21,8.7,20.9c-1.5-0.1-3-0.4-4.4-1L4.2,19.8z
		 M18.2,16.1L18.2,16.1c-0.1-0.1-0.1,0-0.1,0c-2.1,1.4-4.5,2.3-7,2.4c-2.2,0.2-4.5-0.2-6.5-1.2c-0.2,0-0.3-0.2-0.3-0.4
		c0,0,0-0.1,0-0.1c0.1-0.2,0.1-0.4,0.2-0.6c-1.2,0-2.3-0.2-3.4-0.6c0,1,1.3,3.4,2.3,4.1c0-0.1,0.1-0.3,0.1-0.4C3.7,19.1,3.9,19,4,19
		c0.1,0,0.1,0,0.1,0.1c0,0,0.1,0,0.1,0.1c1.4,0.6,2.9,1,4.4,1.1c2.9,0.1,5.8-0.8,8.1-2.7C17.3,17.1,17.7,16.6,18.2,16.1L18.2,16.1z"
		/>
</g>
</svg>
