<?xml version="1.0" encoding="utf-8"?>
<!-- Generator: Adobe Illustrator 25.2.0, SVG Export Plug-In . SVG Version: 6.00 Build 0)  -->
<svg version="1.1" id="Layer_1" xmlns="http://www.w3.org/2000/svg" xmlns:xlink="http://www.w3.org/1999/xlink" x="0px" y="0px"
	 viewBox="0 0 20.9 20.9" style="enable-background:new 0 0 20.9 20.9;" xml:space="preserve">
<style type="text/css">
	.st0{fill:#ff0000;}
</style>
<path id="social-02" class="st0" d="M8,20.9c-0.5-0.1-0.9-0.1-1.4-0.2c-3.5-0.8-5.6-4.3-4.8-7.7C2.4,10.4,4.5,8.4,7.1,8
	c0.7-0.1,1.4-0.1,2,0v3.4c-0.2,0-0.4-0.1-0.5-0.1c-1.7-0.2-3.2,0.9-3.5,2.6c-0.2,1.7,0.9,3.2,2.6,3.5c0,0,0,0,0.1,0
	c1.7,0.2,3.3-1,3.5-2.7c0-0.1,0-0.3,0-0.5c0-2.5,0-4.9,0-7.4V0h3.4c0.1,0.4,0.1,0.7,0.1,1c0.5,2.3,2.5,4,4.9,4.1
	c0.2,0,0.3,0.1,0.3,0.3c0,1,0,1.9,0,2.9v0.2c-1.9,0-3.8-0.6-5.3-1.8v0.3c0,2.4,0,4.8,0,7.2c0,1.3-0.3,2.6-1.1,3.6
	c-1.1,1.7-3,2.8-5,2.9c-0.1,0-0.1,0-0.2,0L8,20.9z"/>
</svg>
