<?xml version="1.0" encoding="UTF-8"?>
<svg id="Layer_1" data-name="Layer 1" xmlns="http://www.w3.org/2000/svg" viewBox="0 0 55.44 52.81">
  <defs>
    <style>
      .cls-1 {
        fill: #ed1e24;
        stroke-width: 0px;
      }
    </style>
  </defs>
  <path class="cls-1" d="M32.93,38.83c.09-.15.1-.29,0-.44-.15-.26-.31-.51-.46-.77-.48-.82-.96-1.64-1.43-2.46-.55-.96-1.09-1.93-1.62-2.9-.13-.24-.3-.34-.59-.35-.97,0-1.94-.04-2.92-.05-.23,0-.46-.02-.69,0-.23.01-.31.15-.21.36.04.09.12.17.17.26.35.61.69,1.23,1.04,1.84.37.65.73,1.3,1.1,1.95.41.71.82,1.42,1.24,2.13.09.16.11.31.02.47-.21.41-.43.82-.63,1.23-.08.17-.17.18-.26.03-.19-.31-.37-.64-.56-.96-.51-.88-1.02-1.76-1.53-2.64-.26-.46-.53-.91-.79-1.37-.14-.24-.27-.49-.41-.73-.23-.42-.46-.84-.71-1.26-.26-.45-.54-.89-.81-1.34-.27-.46-.52-.92-.78-1.38-.04-.07-.05-.15-.08-.22.07-.02.14-.05.21-.05,1.24-.03,2.48-.05,3.71-.08.6-.01,1.2-.04,1.8-.06.09,0,.2-.04.25-.1.03-.04-.02-.16-.06-.24-.06-.1-.14-.19-.2-.29-.52-.9-1.04-1.8-1.54-2.71-.12-.23-.28-.3-.52-.3-1.92.01-3.85.01-5.77.01-.16,0-.27-.05-.35-.18-.16-.27-.33-.53-.49-.8-.42-.71-.86-1.4-1.26-2.12-.54-.96-1.06-1.93-1.59-2.9-.12-.22-.08-.28.18-.27.45.01.9.02,1.34.01.17,0,.29.05.37.19.19.32.37.64.55.96.31.54.62,1.09.93,1.63.26.47.52.94.78,1.4.13.23.29.43.59.43,1.2.01,2.41.01,3.61.02.27,0,.37-.17.24-.4-.17-.3-.34-.61-.52-.91-.3-.51-.61-1.01-.9-1.53-.44-.77-.86-1.55-1.29-2.32-.26-.46-.55-.91-.81-1.37-.3-.52-.58-1.05-.87-1.57-.12-.22-.28-.38-.57-.38-1.65.01-3.3,0-4.95,0h-4.95c-.11,0-.29.04-.32.12-.04.1.01.26.06.36.36.66.74,1.31,1.12,1.96.31.55.62,1.11.93,1.66.27.47.55.94.82,1.41.28.49.56.98.85,1.46.28.48.56.95.84,1.43.26.45.51.91.77,1.36.44.76.9,1.51,1.35,2.26.48.83.96,1.67,1.44,2.5.44.75.89,1.5,1.32,2.25.31.53.6,1.07.91,1.6.45.78.91,1.55,1.35,2.33.25.44.48.88.73,1.32.32.55.65,1.09.96,1.64.44.76.86,1.53,1.29,2.3.37.65.76,1.28,1.14,1.92.45.76.91,1.52,1.35,2.29.2.34.38.7.58,1.04.04.06.14.12.2.11.08,0,.19-.07.23-.14.32-.52.63-1.05.94-1.58.27-.46.55-.91.81-1.37.33-.56.65-1.12.97-1.69.26-.45.52-.91.78-1.36s.52-.91.78-1.36c.28-.44.53-.86.78-1.29Z"/>
  <path class="cls-1" d="M33.55,16.28h-10.58c-.16,0-.32-.01-.48.01-.21.03-.27.18-.16.37.15.24.3.47.43.72.37.67.73,1.35,1.1,2.02.38.68.77,1.36,1.16,2.04.5.88.99,1.76,1.49,2.64.32.56.65,1.12.97,1.68.42.74.84,1.48,1.26,2.21.53.92,1.07,1.84,1.61,2.76.3.5.6,1.01.89,1.51.27.47.54.94.82,1.4.25.43.51.85.77,1.27.33.53.65,1.06.98,1.58.12.18.3.18.42,0,.05-.09.08-.19.14-.28.35-.59.71-1.17,1.06-1.75.22-.37.44-.75.66-1.12.09-.16.1-.31.02-.48-.27-.52-.53-1.06-.82-1.57-.56-1-1.13-1.99-1.71-2.97-.43-.74-.87-1.47-1.31-2.21-.07-.13-.12-.27-.17-.4.14-.01.28-.04.43-.04,2.48,0,4.95,0,7.43.01.36,0,.63-.12.8-.42.24-.41.47-.84.71-1.26.34-.6.7-1.19,1.05-1.78.17-.29.08-.45-.25-.45-.21,0-.42.01-.63.01-3.87,0-7.74,0-11.61-.01-.11,0-.26-.07-.32-.15-.26-.38-.5-.77-.74-1.16-.09-.14-.01-.24.15-.24.65,0,1.3.01,1.95.01,2.99-.01,5.99-.03,8.98-.05,1.11-.01,2.22-.01,3.34-.02.19,0,.35-.05.44-.22.3-.51.58-1.03.88-1.54.32-.54.64-1.07.96-1.62.06-.1.11-.26.06-.34-.04-.08-.2-.14-.32-.14-.33-.01-.67.02-1,.02h-10.87s0-.02,0-.03Z"/>
  <path class="cls-1" d="M14.2,15.07c.26.02.53.01.8.01h3.78c.38,0,.77.01,1.12-.19.26-.15.52-.3.79-.43.54-.26,1.08-.52,1.63-.76.32-.14.65-.25.98-.36.34-.12.68-.25,1.03-.33.34-.08.68-.13,1.03-.18.49-.08.99-.21,1.48-.23.84-.03,1.68-.08,2.51.09.35.07.72.1,1.07.17.53.11,1.07.21,1.58.37.57.18,1.13.41,1.67.65.55.24,1.09.5,1.6.81.45.27.9.43,1.44.4.68-.03,1.37-.01,2.06-.01h0c.85.01,1.71.01,2.56,0,.09,0,.24-.06.25-.12.02-.1,0-.25-.07-.32-.36-.37-.73-.75-1.12-1.09-.67-.57-1.35-1.15-2.07-1.66-.86-.61-1.77-1.14-2.74-1.56-.73-.32-1.49-.58-2.24-.87-.13-.05-.27-.08-.4-.12-4.53-1.41-9.76-.8-13.93,1.44-.5.27-.98.57-1.44.88-.65.44-1.3.89-1.9,1.39-.58.48-1.09,1.04-1.64,1.55-.11.1-.17.21-.1.33.05.08.17.13.27.14Z"/>
  <path class="cls-1" d="M23.31,44.18c-.37-.63-.74-1.26-1.1-1.89-.31-.53-.59-1.07-.9-1.6-.15-.25-.31-.51-.52-.69-.32-.26-.7-.46-1.04-.69-.42-.28-.86-.54-1.26-.86-.82-.67-1.6-1.39-2.27-2.22-.55-.69-1.06-1.4-1.47-2.18-.28-.53-.54-1.06-.75-1.63-.27-.74-.47-1.5-.65-2.27-.11-.49-.18-1-.24-1.5-.06-.53-.08-1.06-.11-1.59h.03c0-.27.01-.53-.01-.8-.01-.17-.05-.36-.12-.52-.1-.22-.25-.42-.37-.63-.43-.77-.84-1.55-1.27-2.33-.31-.55-.63-1.1-.95-1.65-.04-.07-.15-.16-.21-.15-.07.01-.17.11-.19.18-.54,2.16-1,4.28-.87,6.52.13,2.11.68,4.21,1.33,6.18.07.2.11.41.19.6.21.47.42.94.67,1.39.33.59.68,1.18,1.07,1.74.58.84,1.21,1.65,1.95,2.35.68.64,1.37,1.27,2.09,1.86.44.36.93.66,1.41.97.37.24.75.47,1.15.67.54.27,1.09.52,1.65.75.44.19.9.34,1.35.51.24.09.48.18.73.25.29.09.59.17.89.22.2.03.29-.13.19-.31-.13-.21-.26-.45-.4-.68Z"/>
  <path class="cls-1" d="M45.25,21.69c-.04-.17-.21-.23-.32-.12-.06.06-.1.15-.14.23l-.27.54c-.32.57-.65,1.14-.97,1.71-.38.67-.77,1.34-1.15,2.02-.09.17-.18.36-.19.55-.03.45,0,.91,0,1.36h0c-.03.34-.03.68-.08,1.02-.07.52-.2,1.04-.26,1.57-.09.84-.39,1.63-.65,2.42-.1.31-.27.59-.4.9-.45,1.05-1.07,2.01-1.8,2.89-.63.75-1.31,1.46-2.1,2.04-.63.47-1.28.91-1.94,1.35-.39.26-.8.49-1.03.94-.35.68-.74,1.33-1.11,1.99-.43.75-.86,1.49-1.29,2.25-.05.09-.03.22-.04.33.11,0,.23.06.33.03.42-.13.83-.29,1.24-.44.69-.26,1.38-.5,2.05-.79.52-.23,1.02-.51,1.52-.79.83-.46,1.62-.98,2.38-1.55.83-.64,1.62-1.33,2.32-2.11.51-.57.98-1.16,1.45-1.76.28-.36.52-.76.75-1.16.26-.44.51-.89.73-1.36.28-.59.55-1.19.78-1.8.18-.47.29-.96.45-1.43,1.19-3.65.66-7.25-.24-10.83Z"/>
</svg>